<svg xmlns="http://www.w3.org/2000/svg" width="100" height="100" viewBox="0 0 100 100">
    <g fill="#FFF">
        <path d="M13.333 13.333H16.666V16.666H13.333zM20 13.333H23.333V16.666H20zM26.667 13.333H30V16.666H26.667z"/>
        <path d="M93.333 0H60c-3.682 0-6.667 2.985-6.667 6.667h-40c-3.682 0-6.666 2.984-6.666 6.666v73.334c0 3.682 2.984 6.666 6.666 6.666h73.334c3.682 0 6.666-2.984 6.666-6.666V30c3.682 0 6.667-2.985 6.667-6.667V6.667C100 2.985 97.015 0 93.333 0zm-80 10h40v10H10v-6.667C10 11.493 11.492 10 13.333 10zM90 86.667C90 88.507 88.508 90 86.667 90H13.333C11.493 90 10 88.508 10 86.667V23.333h43.333C53.333 27.015 56.318 30 60 30h1.667v5c0 .615.338 1.18.88 1.47.542.29 1.2.258 1.711-.083L73.833 30H90v56.667zm6.667-63.334c0 1.841-1.493 3.334-3.334 3.334h-20c-.329 0-.65.098-.925.28L65 31.887v-3.554c0-.92-.746-1.666-1.667-1.666H60c-1.84 0-3.333-1.493-3.333-3.334V6.667c0-1.841 1.492-3.334 3.333-3.334h33.333c1.841 0 3.334 1.493 3.334 3.334v16.666z"/>
        <path d="M63.822 7.155l-3.334 3.333c-.65.651-.65 1.706 0 2.357l3.334 3.333 2.356-2.356-2.155-2.155 2.155-2.155-2.356-2.357zM76.178 16.178l3.334-3.333c.65-.65.65-1.706 0-2.357l-3.334-3.333-2.356 2.357 2.155 2.155-2.155 2.155 2.356 2.356z"/>
        <path d="M64.729 10L75.271 10 75.271 13.332 64.729 13.332z" transform="rotate(-71.547 70 11.666)"/>
        <path d="M83.333 10H86.666V13.333H83.333zM60 20H63.333V23.333H60zM66.667 20H93.334V23.333H66.667zM90 10H93.333V13.333H90zM18.333 31.667h33.334v-3.334h-35c-.92 0-1.667.747-1.667 1.667v18.333c0 .92.746 1.667 1.667 1.667h66.666c.92 0 1.667-.746 1.667-1.667v-15h-3.333v13.334H18.333v-15zM33.333 55H16.667c-.92 0-1.667.746-1.667 1.667v6.666c0 .92.746 1.667 1.667 1.667h16.666c.92 0 1.667-.746 1.667-1.667v-6.666c0-.92-.746-1.667-1.667-1.667zm-1.666 6.667H18.333v-3.334h13.334v3.334zM15 68.333H35V71.666H15zM15 75H35V78.333H15zM15 81.667H30V85H15zM58.333 55H41.667c-.92 0-1.667.746-1.667 1.667v6.666c0 .92.746 1.667 1.667 1.667h16.666c.92 0 1.667-.746 1.667-1.667v-6.666c0-.92-.746-1.667-1.667-1.667zm-1.666 6.667H43.333v-3.334h13.334v3.334zM40 68.333H60V71.666H40zM40 75H60V78.333H40zM40 81.667H55V85H40zM83.333 55H66.667c-.92 0-1.667.746-1.667 1.667v6.666c0 .92.746 1.667 1.667 1.667h16.666c.92 0 1.667-.746 1.667-1.667v-6.666c0-.92-.746-1.667-1.667-1.667zm-1.666 6.667H68.333v-3.334h13.334v3.334zM65 68.333H85V71.666H65zM65 75H85V78.333H65zM65 81.667H80V85H65zM40 96.667H86.667V100H40zM33.333 96.667H36.666V100H33.333zM0 23.333H3.333V66.666H0z"/>
    </g>
</svg>
