<svg xmlns="http://www.w3.org/2000/svg" width="60" height="60" viewBox="0 0 60 60">
    <g fill="none">
        <g fill="#AFB6BB">
            <path d="M6.306.082L.093 15.96l5.522-4.142 4.297.85c1.72-4.5 3.701-8.423 5.858-11.851L6.306.082zM33.918 27.695l-15.877 6.213 4.141-5.523-.85-4.297c4.5-1.719 8.423-3.7 11.852-5.857l.734 9.464z" transform="translate(3 23)"/>
        </g>
        <path fill="#EBBA16" d="M15.919 45.222l-1.141-1.141c-2.884-2.177-7.128-.91-8.64 2.414L0 60l13.505-6.138c3.324-1.512 4.592-5.757 2.414-8.64z"/>
        <path fill="#BED8FB" d="M59.955.045S26.595-2.735 12 35.49l4.904 4.903 2.703 2.703L24.51 48C62.734 33.404 59.955.045 59.955.045z"/>
        <path fill="#AFB6BB" d="M30 30L22.904 30 14 46 30 36.317z"/>
        <path fill="#E27A66" d="M39 4.433L55.568 21C60.759 9.731 59.955.045 59.955.045S50.269-.76 39 4.433z"/>
        <circle cx="38" cy="22" r="8" fill="#366DB6"/>
        <path fill="#FFF" d="M38.09 27c-1.304 0-2.609-.488-3.601-1.463-1.985-1.95-1.985-5.124 0-7.074 1.985-1.95 5.217-1.95 7.2 0 .414.406.414 1.063 0 1.47-.412.406-1.083.406-1.496 0-1.16-1.14-3.048-1.14-4.208 0-1.16 1.14-1.16 2.994 0 4.134 1.161 1.14 3.049 1.142 4.208 0 .413-.406 1.084-.406 1.497 0 .413.407.413 1.064 0 1.47-.992.974-2.296 1.463-3.6 1.463z"/>
    </g>
</svg>
